# xmcd
#
# Track frame offsets: 
#        150
#        13160
#        28850
#        42705
#        54870
#        67950
#        85095
#        110440
#        125700
#        141202
#
# Disc length: 2045 seconds
#
# Revision: 0
# Processed by: cddbd v1.5.1PL0 Copyright (c) Steve Scherf et al.
# Submitted via: ExactAudioCopy v0.95b1
#
DISCID=8a07fb0a
DTITLE=Stick - Disgruntled Ex-employee
DYEAR=1900
DGENRE=A Cappella
TTITLE0=Long Division
TTITLE1=Tooth Fairy
TTITLE2=Disgruntled Ex-employee
TTITLE3=Automartyr
TTITLE4=Spitter
TTITLE5=Yarrow
TTITLE6=Rubber Tapper
TTITLE7=Thank-You Buddha
TTITLE8=Brown Dog
TTITLE9=Small Pond
EXTD=
EXTT0=
EXTT1=
EXTT2=
EXTT3=
EXTT4=
EXTT5=
EXTT6=
EXTT7=
EXTT8=
EXTT9=
PLAYORDER=
